<?xml version="1.0" standalone="no"?>
<!DOCTYPE svg PUBLIC "-//W3C//DTD SVG 20010904//EN"
 "http://www.w3.org/TR/2001/REC-SVG-20010904/DTD/svg10.dtd">
<svg version="1.0" xmlns="http://www.w3.org/2000/svg"
 width="602.000000pt" height="462.000000pt" viewBox="0 0 602.000000 462.000000"
 preserveAspectRatio="xMidYMid meet">
<metadata>
Created by potrace 1.15, written by Peter Selinger 2001-2017
</metadata>
<g transform="translate(0.000000,462.000000) scale(0.100000,-0.100000)"
fill="#000000" stroke="none">
<path d="M2966 4363 c-4 -5 -11 -8 -14 -8 -16 -1 -79 -39 -105 -64 -24 -22
-69 -93 -72 -111 0 -3 -3 -9 -7 -15 -3 -5 -6 -37 -6 -70 0 -33 3 -64 6 -70 4
-5 7 -12 7 -15 1 -3 10 -23 22 -45 24 -46 58 -80 109 -109 36 -21 37 -22 36
-81 0 -43 -4 -59 -13 -57 -6 2 -19 0 -28 -4 -9 -3 -41 -6 -72 -5 -32 2 -60 -2
-63 -7 -3 -5 -17 -7 -31 -5 -13 3 -33 2 -42 -2 -10 -4 -30 -7 -45 -6 -14 1
-29 -2 -32 -8 -4 -6 -13 -8 -21 -5 -8 3 -20 2 -27 -2 -7 -5 -23 -7 -35 -6 -11
2 -24 -1 -27 -7 -4 -6 -13 -8 -20 -5 -8 3 -17 1 -20 -5 -4 -6 -13 -8 -20 -5
-8 3 -17 1 -20 -5 -4 -6 -13 -8 -20 -5 -8 3 -17 0 -21 -5 -3 -6 -11 -9 -16 -5
-5 3 -16 0 -24 -6 -8 -7 -15 -9 -15 -5 0 4 -6 2 -13 -4 -8 -6 -17 -8 -20 -4
-4 3 -13 0 -22 -7 -8 -7 -15 -9 -15 -5 0 4 -7 2 -15 -5 -8 -7 -15 -9 -15 -5 0
4 -7 2 -15 -5 -8 -7 -15 -9 -15 -5 0 4 -7 2 -15 -5 -8 -7 -15 -10 -15 -6 0 4
-11 -1 -25 -10 -14 -9 -25 -13 -25 -10 0 4 -11 -1 -25 -10 -14 -9 -25 -13 -25
-10 0 4 -11 -1 -24 -10 -14 -8 -27 -15 -31 -15 -3 1 -68 -30 -145 -69 -486
-247 -877 -643 -1124 -1137 -25 -51 -46 -95 -46 -98 0 -3 -7 -19 -15 -35 -8
-16 -16 -33 -16 -37 0 -5 -7 -18 -15 -31 -8 -12 -12 -22 -8 -22 4 0 1 -7 -6
-15 -7 -8 -9 -15 -5 -15 4 0 2 -7 -5 -15 -7 -8 -9 -15 -5 -15 4 0 2 -7 -5 -15
-7 -8 -9 -15 -5 -15 4 0 2 -7 -5 -15 -7 -8 -9 -15 -5 -15 4 0 2 -7 -5 -15 -7
-8 -9 -15 -5 -15 4 0 2 -7 -5 -15 -7 -8 -9 -15 -5 -15 4 0 2 -7 -5 -15 -7 -9
-10 -18 -7 -22 4 -3 2 -12 -4 -20 -6 -7 -8 -13 -4 -13 4 0 2 -7 -5 -15 -7 -8
-10 -21 -7 -30 4 -8 2 -17 -4 -21 -6 -3 -8 -12 -5 -20 3 -7 0 -16 -5 -20 -6
-3 -9 -15 -6 -25 3 -10 1 -22 -5 -25 -5 -3 -8 -15 -5 -25 3 -10 1 -22 -5 -25
-5 -3 -8 -16 -7 -27 1 -12 -1 -30 -6 -40 -4 -9 -5 -26 -2 -37 3 -11 1 -23 -5
-26 -5 -3 -8 -22 -7 -43 1 -20 -1 -43 -5 -51 -3 -9 -5 -108 -4 -220 l3 -205
1228 -2 1229 -3 0 -80 0 -80 -1229 -3 -1228 -2 0 -195 0 -195 2545 0 2545 0 0
195 0 195 -1223 2 -1224 3 0 80 0 80 1229 3 1228 2 3 205 c1 112 -1 211 -4
220 -4 8 -6 31 -5 51 1 21 -2 40 -7 43 -6 3 -8 15 -5 26 3 11 2 28 -2 37 -5
10 -7 28 -6 40 1 11 -2 24 -7 27 -6 3 -8 15 -5 25 3 10 0 22 -5 25 -6 3 -8 15
-5 25 3 10 0 22 -6 25 -5 4 -8 13 -5 20 3 8 1 17 -5 20 -6 4 -8 13 -4 21 3 9
0 22 -7 30 -7 8 -9 15 -5 15 4 0 2 6 -4 13 -6 8 -8 17 -4 20 3 4 0 13 -7 22
-7 8 -9 15 -5 15 4 0 2 7 -5 15 -7 8 -9 15 -5 15 4 0 2 7 -5 15 -7 8 -9 15 -5
15 4 0 2 7 -5 15 -7 8 -9 15 -5 15 4 0 2 7 -5 15 -7 8 -9 15 -5 15 4 0 2 7 -5
15 -7 8 -9 15 -5 15 4 0 2 7 -5 15 -7 8 -10 15 -6 15 4 0 -2 12 -11 27 -10 15
-17 28 -15 30 1 2 -5 17 -13 33 -8 16 -15 32 -15 35 0 11 -95 196 -148 285
-132 222 -365 491 -567 655 -133 108 -298 215 -455 295 -77 39 -142 70 -145
69 -4 0 -17 7 -31 15 -13 9 -24 14 -24 10 0 -3 -11 1 -25 10 -14 9 -25 14 -25
10 0 -3 -11 1 -25 10 -14 9 -25 14 -25 10 0 -4 -7 -1 -15 6 -8 7 -15 9 -15 5
0 -4 -7 -2 -15 5 -8 7 -15 9 -15 5 0 -4 -7 -2 -15 5 -8 7 -15 9 -15 5 0 -4 -7
-2 -15 5 -9 7 -18 10 -22 7 -3 -4 -12 -2 -20 4 -7 6 -13 8 -13 4 0 -4 -7 -2
-15 5 -8 6 -19 9 -24 6 -5 -4 -13 -1 -16 5 -4 5 -13 8 -21 5 -7 -3 -16 -1 -20
5 -3 6 -12 8 -20 5 -7 -3 -16 -1 -20 5 -3 6 -12 8 -20 5 -7 -3 -16 -1 -20 5
-3 6 -16 9 -27 8 -12 -1 -30 1 -39 5 -9 4 -21 5 -27 2 -5 -4 -13 -1 -16 4 -4
6 -19 10 -33 9 -15 -1 -35 2 -45 6 -9 4 -29 5 -42 2 -14 -2 -28 0 -31 5 -3 5
-31 9 -63 7 -31 -1 -63 2 -72 5 -9 4 -22 6 -28 4 -9 -2 -13 14 -13 57 -1 59 0
60 36 81 51 29 85 63 109 109 12 22 21 43 22 47 0 3 3 10 8 14 4 4 7 35 7 69
0 34 -3 65 -7 69 -5 4 -8 11 -8 14 -1 16 -39 79 -64 105 -23 25 -94 70 -113
72 -3 0 -10 3 -14 8 -4 4 -35 7 -69 7 -34 0 -65 -3 -69 -7z m224 -1058 c6 -4
30 -6 53 -4 23 1 50 -2 60 -6 9 -4 26 -5 37 -2 11 3 23 1 26 -5 3 -5 16 -8 27
-7 12 1 30 -2 40 -6 10 -4 21 -5 24 -1 3 3 12 1 19 -5 8 -6 20 -9 29 -6 8 4
17 2 21 -4 3 -6 12 -8 20 -5 7 3 16 1 20 -5 3 -6 12 -8 19 -5 7 2 18 -1 24 -7
6 -6 11 -7 11 -3 0 5 7 3 15 -4 9 -7 18 -10 22 -7 3 4 12 2 20 -4 7 -6 13 -8
13 -4 0 4 7 2 15 -5 8 -7 15 -9 15 -5 0 4 7 2 15 -5 8 -7 15 -9 15 -5 0 4 11
0 25 -9 14 -9 25 -14 25 -10 0 4 7 1 15 -6 8 -7 15 -10 15 -6 0 4 13 0 30 -9
16 -8 31 -15 32 -14 2 2 53 -23 114 -55 337 -172 630 -434 836 -748 57 -86
148 -248 152 -270 1 -7 10 -28 19 -45 10 -18 15 -33 12 -33 -3 0 2 -11 11 -25
9 -14 13 -25 10 -25 -4 0 1 -11 10 -25 9 -14 13 -25 9 -25 -4 0 -2 -7 5 -15 7
-8 9 -15 5 -15 -4 0 -2 -7 5 -15 7 -8 9 -15 5 -15 -4 0 -2 -7 5 -15 7 -8 9
-15 5 -15 -4 0 -2 -6 4 -13 6 -8 8 -17 4 -20 -3 -4 0 -13 7 -22 7 -8 9 -15 4
-15 -4 0 -3 -5 3 -11 6 -6 9 -17 7 -24 -3 -7 -1 -16 4 -19 6 -3 8 -15 5 -25
-3 -10 0 -22 5 -25 6 -3 8 -15 5 -25 -3 -10 0 -22 5 -25 6 -3 8 -15 5 -25 -3
-10 0 -22 5 -25 6 -3 8 -15 5 -26 -3 -11 -2 -28 2 -37 4 -10 7 -35 8 -56 l0
-37 -2138 0 -2138 0 0 37 c1 21 4 46 8 56 4 9 5 26 2 37 -3 11 -1 23 5 26 5 3
8 15 5 25 -3 10 -1 22 5 25 5 3 8 15 5 25 -3 10 -1 22 5 25 5 3 8 15 5 25 -3
10 -1 22 5 25 5 3 7 12 4 19 -2 7 1 18 7 24 6 6 7 11 3 11 -5 0 -3 7 4 15 7 9
10 18 7 22 -4 3 -2 12 4 20 6 7 8 13 4 13 -4 0 -2 7 5 15 7 8 9 15 5 15 -4 0
-2 7 5 15 7 8 9 15 5 15 -4 0 -2 7 5 15 7 8 9 15 5 15 -4 0 0 11 9 25 9 14 14
25 10 25 -3 0 1 11 10 25 9 14 14 25 11 25 -3 0 2 15 12 33 9 17 18 38 19 45
4 22 95 184 152 270 206 314 499 576 836 748 61 32 112 57 114 55 1 -1 16 6
32 14 17 9 30 13 30 9 0 -4 7 -1 15 6 8 7 15 10 15 6 0 -4 11 1 25 10 14 9 25
13 25 9 0 -4 7 -2 15 5 8 7 15 9 15 5 0 -4 7 -2 15 5 8 7 15 9 15 5 0 -4 6 -2
13 4 8 6 17 8 20 4 4 -3 13 0 22 7 8 7 15 9 15 4 0 -4 5 -3 11 3 6 6 17 9 24
7 7 -3 16 -1 19 5 4 6 13 8 20 5 8 -3 17 -1 20 5 4 6 13 8 21 4 9 -3 21 0 29
6 7 6 16 8 19 5 3 -4 14 -3 24 1 10 4 28 7 40 6 11 -1 24 2 27 7 3 6 15 8 26
5 11 -3 28 -2 37 2 10 4 39 7 64 6 26 -2 49 1 52 6 6 9 292 7 307 -2z"/>
<path d="M3415 3031 c-3 -5 -1 -12 4 -15 5 -3 7 -15 4 -26 -3 -11 -2 -28 2
-37 5 -10 7 -27 6 -37 -2 -10 3 -30 10 -43 12 -22 19 -24 69 -22 30 1 63 -2
72 -6 9 -4 21 -4 27 -1 5 4 13 1 16 -5 4 -5 13 -8 21 -5 7 3 16 1 20 -5 3 -6
12 -8 19 -5 7 2 18 -1 24 -7 6 -6 11 -7 11 -3 0 5 7 3 15 -4 8 -7 15 -9 15 -5
0 4 11 0 25 -9 14 -9 25 -14 25 -11 0 3 10 0 23 -7 12 -6 27 -13 34 -14 24 -4
151 -81 225 -136 93 -71 183 -169 233 -253 20 -35 42 -62 48 -61 7 1 27 10 45
19 17 10 32 15 32 12 0 -3 11 2 24 11 14 8 29 16 33 15 34 -1 -66 164 -159
264 -43 46 -108 106 -146 133 -65 49 -239 152 -255 152 -4 0 -21 7 -37 15 -16
8 -31 14 -33 13 -2 -2 -15 5 -30 15 -15 9 -27 15 -27 11 0 -4 -7 -1 -15 6 -8
7 -15 9 -15 5 0 -4 -7 -2 -15 5 -9 7 -18 10 -22 7 -3 -4 -12 -2 -20 4 -7 6
-13 8 -13 4 0 -4 -7 -2 -15 5 -8 7 -21 10 -30 7 -8 -4 -17 -1 -21 4 -3 6 -17
9 -30 6 -14 -2 -27 0 -30 4 -7 12 -161 11 -169 0z"/>
</g>
</svg>
